name rise30.2954peak35.7071fall66.7804.mot
datacolumns 19
datarows 24
range 10.75329400000000 10.79163200000000
endheader
time	ground_force1_vx	ground_force1_vy	ground_force1_vz	ground_force1_px	ground_force1_py	ground_force1_pz	ground_force2_vx	ground_force2_vy	ground_force2_vz	ground_force2_px	ground_force2_py	ground_force2_pz	ground_torque1_x	ground_torque1_y	ground_torque1_z	ground_torque2_x	ground_torque2_y	ground_torque2_z	
10.75329400000000	60.05203200000000	791.54790400000002	62.83770200000000	0.35223200000000	0.00000000000000	0.15460000000000	0.00000000000000	0.00000000000000	0.00000000000000	0.00000000000000	0.00000000000000	0.00000000000000	0.00000000000000	24.35692500000000	0.00000000000000	0.00000000000000	0.00000000000000	0.00000000000000	
10.75496100000000	59.31922700000000	792.36349299999995	62.73509200000000	0.35107900000000	0.00000000000000	0.15460300000000	0.00000000000000	0.00000000000000	0.00000000000000	0.00000000000000	0.00000000000000	0.00000000000000	0.00000000000000	24.37004400000000	0.00000000000000	0.00000000000000	0.00000000000000	0.00000000000000	
10.75662600000000	58.59493000000000	793.05101500000001	62.62705200000000	0.34995800000000	0.00000000000000	0.15460700000000	0.00000000000000	0.00000000000000	0.00000000000000	0.00000000000000	0.00000000000000	0.00000000000000	0.00000000000000	24.38069000000000	0.00000000000000	0.00000000000000	0.00000000000000	0.00000000000000	
10.75830100000000	57.87937500000000	793.61134800000002	62.51387300000000	0.34887000000000	0.00000000000000	0.15460900000000	0.00000000000000	0.00000000000000	0.00000000000000	0.00000000000000	0.00000000000000	0.00000000000000	0.00000000000000	24.38905200000000	0.00000000000000	0.00000000000000	0.00000000000000	0.00000000000000	
10.75996400000000	57.17272000000000	794.04556500000001	62.39579600000000	0.34781300000000	0.00000000000000	0.15461200000000	0.00000000000000	0.00000000000000	0.00000000000000	0.00000000000000	0.00000000000000	0.00000000000000	0.00000000000000	24.39528900000000	0.00000000000000	0.00000000000000	0.00000000000000	0.00000000000000	
10.76163200000000	56.47504700000000	794.35493299999996	62.27301200000000	0.34678800000000	0.00000000000000	0.15461400000000	0.00000000000000	0.00000000000000	0.00000000000000	0.00000000000000	0.00000000000000	0.00000000000000	0.00000000000000	24.39953000000000	0.00000000000000	0.00000000000000	0.00000000000000	0.00000000000000	
10.76330000000000	55.78636900000000	794.54092500000002	62.14566700000000	0.34579300000000	0.00000000000000	0.15461500000000	0.00000000000000	0.00000000000000	0.00000000000000	0.00000000000000	0.00000000000000	0.00000000000000	0.00000000000000	24.40187600000000	0.00000000000000	0.00000000000000	0.00000000000000	0.00000000000000	
10.76496100000000	55.10663300000000	794.60521500000004	62.01386400000000	0.34482900000000	0.00000000000000	0.15461700000000	0.00000000000000	0.00000000000000	0.00000000000000	0.00000000000000	0.00000000000000	0.00000000000000	0.00000000000000	24.40240400000000	0.00000000000000	0.00000000000000	0.00000000000000	0.00000000000000	
10.76662900000000	54.43572800000000	794.54968799999995	61.87766900000000	0.34389400000000	0.00000000000000	0.15461800000000	0.00000000000000	0.00000000000000	0.00000000000000	0.00000000000000	0.00000000000000	0.00000000000000	0.00000000000000	24.40116400000000	0.00000000000000	0.00000000000000	0.00000000000000	0.00000000000000	
10.76829600000000	53.77349000000000	794.37643700000001	61.73711100000000	0.34298700000000	0.00000000000000	0.15461900000000	0.00000000000000	0.00000000000000	0.00000000000000	0.00000000000000	0.00000000000000	0.00000000000000	0.00000000000000	24.39818600000000	0.00000000000000	0.00000000000000	0.00000000000000	0.00000000000000	
10.76995900000000	53.11970200000000	794.08776000000000	61.59219100000000	0.34210800000000	0.00000000000000	0.15461900000000	0.00000000000000	0.00000000000000	0.00000000000000	0.00000000000000	0.00000000000000	0.00000000000000	0.00000000000000	24.39347800000000	0.00000000000000	0.00000000000000	0.00000000000000	0.00000000000000	
10.77163300000000	52.47410800000000	793.68616399999996	61.44287900000000	0.34125400000000	0.00000000000000	0.15461900000000	0.00000000000000	0.00000000000000	0.00000000000000	0.00000000000000	0.00000000000000	0.00000000000000	0.00000000000000	24.38702900000000	0.00000000000000	0.00000000000000	0.00000000000000	0.00000000000000	
10.77329800000000	51.83641100000000	793.17435799999998	61.28912400000000	0.34042600000000	0.00000000000000	0.15461900000000	0.00000000000000	0.00000000000000	0.00000000000000	0.00000000000000	0.00000000000000	0.00000000000000	0.00000000000000	24.37880900000000	0.00000000000000	0.00000000000000	0.00000000000000	0.00000000000000	
10.77496500000000	51.20628200000000	792.55525299999999	61.13085800000000	0.33962100000000	0.00000000000000	0.15461900000000	0.00000000000000	0.00000000000000	0.00000000000000	0.00000000000000	0.00000000000000	0.00000000000000	0.00000000000000	24.36877500000000	0.00000000000000	0.00000000000000	0.00000000000000	0.00000000000000	
10.77662600000000	50.58336800000000	791.83195200000000	60.96799300000000	0.33883900000000	0.00000000000000	0.15461800000000	0.00000000000000	0.00000000000000	0.00000000000000	0.00000000000000	0.00000000000000	0.00000000000000	0.00000000000000	24.35686800000000	0.00000000000000	0.00000000000000	0.00000000000000	0.00000000000000	
10.77830000000000	49.96729100000000	791.00774600000000	60.80043300000000	0.33807700000000	0.00000000000000	0.15461700000000	0.00000000000000	0.00000000000000	0.00000000000000	0.00000000000000	0.00000000000000	0.00000000000000	0.00000000000000	24.34301900000000	0.00000000000000	0.00000000000000	0.00000000000000	0.00000000000000	
10.77996300000000	49.35765700000000	790.08610899999996	60.62807500000000	0.33733300000000	0.00000000000000	0.15461500000000	0.00000000000000	0.00000000000000	0.00000000000000	0.00000000000000	0.00000000000000	0.00000000000000	0.00000000000000	24.32714700000000	0.00000000000000	0.00000000000000	0.00000000000000	0.00000000000000	
10.78162900000000	48.75406400000000	789.07068700000002	60.45081100000000	0.33660800000000	0.00000000000000	0.15461400000000	0.00000000000000	0.00000000000000	0.00000000000000	0.00000000000000	0.00000000000000	0.00000000000000	0.00000000000000	24.30916600000000	0.00000000000000	0.00000000000000	0.00000000000000	0.00000000000000	
10.78329800000000	48.15610000000000	787.96528899999998	60.26853500000000	0.33589700000000	0.00000000000000	0.15461200000000	0.00000000000000	0.00000000000000	0.00000000000000	0.00000000000000	0.00000000000000	0.00000000000000	0.00000000000000	24.28898100000000	0.00000000000000	0.00000000000000	0.00000000000000	0.00000000000000	
10.78496700000000	47.56335400000000	786.77387799999997	60.08114300000000	0.33520100000000	0.00000000000000	0.15460900000000	0.00000000000000	0.00000000000000	0.00000000000000	0.00000000000000	0.00000000000000	0.00000000000000	0.00000000000000	24.26649200000000	0.00000000000000	0.00000000000000	0.00000000000000	0.00000000000000	
10.78663400000000	46.97541800000000	785.50055999999995	59.88853900000000	0.33451700000000	0.00000000000000	0.15460700000000	0.00000000000000	0.00000000000000	0.00000000000000	0.00000000000000	0.00000000000000	0.00000000000000	0.00000000000000	24.24159800000000	0.00000000000000	0.00000000000000	0.00000000000000	0.00000000000000	
10.78829900000000	46.39189100000000	784.14957200000003	59.69063600000000	0.33384200000000	0.00000000000000	0.15460400000000	0.00000000000000	0.00000000000000	0.00000000000000	0.00000000000000	0.00000000000000	0.00000000000000	0.00000000000000	24.21419600000000	0.00000000000000	0.00000000000000	0.00000000000000	0.00000000000000	
10.78996600000000	45.81238600000000	782.72526800000003	59.48736400000000	0.33317600000000	0.00000000000000	0.15460100000000	0.00000000000000	0.00000000000000	0.00000000000000	0.00000000000000	0.00000000000000	0.00000000000000	0.00000000000000	24.18418300000000	0.00000000000000	0.00000000000000	0.00000000000000	0.00000000000000	
10.79163200000000	45.23652800000000	781.23210900000004	59.27866400000000	0.33251600000000	0.00000000000000	0.15459800000000	0.00000000000000	0.00000000000000	0.00000000000000	0.00000000000000	0.00000000000000	0.00000000000000	0.00000000000000	24.15145800000000	0.00000000000000	0.00000000000000	0.00000000000000	0.00000000000000	
